<svg xmlns="http://www.w3.org/2000/svg" width="111" height="36" viewBox="0 0 111 36">
    <defs>
        <filter id="20kkmo2cya" color-interpolation-filters="auto">
            <feColorMatrix in="SourceGraphic" values="0 0 0 0 1.000000 0 0 0 0 1.000000 0 0 0 0 1.000000 0 0 0 1.000000 0"/>
        </filter>
    </defs>
    <g fill="none" fill-rule="evenodd">
        <g filter="url(#20kkmo2cya)" transform="translate(-28.000000, -14.000000)">
            <g fill="#006AA6" fill-rule="nonzero">
                <path d="M98.934 20.28c-.099 0-.197.004-.296.012-1.79.142-3.246 1.605-3.388 3.404-.085 1.094.306 2.163 1.073 2.934.767.771 1.83 1.165 2.92 1.078 1.79-.142 3.246-1.605 3.387-3.404.086-1.094-.305-2.163-1.072-2.935-.698-.7-1.64-1.089-2.624-1.089zm.012 9.24c-1.457 0-2.855-.576-3.89-1.617-1.138-1.144-1.718-2.729-1.591-4.348.21-2.672 2.373-4.847 5.032-5.057 1.612-.13 3.189.455 4.327 1.599 1.139 1.144 1.719 2.73 1.592 4.349-.21 2.672-2.373 4.846-5.032 5.057-.147.011-.293.017-.438.017zM89.93 19.302c-.853 1.651-1.239 3.513-1.115 5.385.163 2.49 1.242 4.832 3.038 6.597 1.795 1.764 4.15 2.796 6.63 2.906 2.802.125 5.455-.879 7.474-2.821 2.02-1.944 3.134-4.563 3.134-7.373 0-4.64-3.115-8.7-7.574-9.872l-1.203-.316 5.105-8.309-4.852-2.979L89.93 19.302zM99.006 36c-.182 0-.364-.004-.547-.012-2.935-.13-5.72-1.346-7.841-3.426-2.122-2.08-3.398-4.845-3.591-7.785-.147-2.222.316-4.432 1.34-6.39l.039-.068L100.046 0l7.977 4.885-4.81 7.808c4.64 1.74 7.787 6.214 7.787 11.271 0 3.315-1.315 6.404-3.705 8.697-2.255 2.165-5.18 3.339-8.289 3.339z" transform="translate(28.000000, 14.000000)"/>
                <g>
                    <path d="M7.545 9.479c-1.974 0-2.741 1.16-2.918 2.176h5.865c-.117-.986-.854-2.176-2.947-2.176M0 13.22c0-4.06 3.095-7.338 7.545-7.338 4.214 0 7.28 3.046 7.28 7.803v1.014H4.685c.325 1.248 1.504 2.292 3.567 2.292 1.001 0 2.652-.435 3.477-1.189l1.975 2.93c-1.415 1.246-3.772 1.856-5.954 1.856C3.361 20.588 0 17.774 0 13.22M16.936 20.47h4.474V6.16h-4.474v14.31zm-.319-17.924C16.617 1.128 17.75 0 19.173 0c1.423 0 2.585 1.128 2.585 2.546S20.596 5.12 19.173 5.12c-1.424 0-2.556-1.157-2.556-2.575zM34.296 14.85v-3.756c-.562-.757-1.776-1.252-2.722-1.252-1.805 0-3.137 1.077-3.137 3.115 0 2.067 1.332 3.144 3.137 3.144.946 0 2.16-.494 2.722-1.251m-9.973 9.054l1.983-3.144c1.125 1.164 2.693 1.63 4.35 1.63 1.51 0 3.64-.64 3.64-3.319v-1.078c-1.183 1.398-2.604 2.068-4.232 2.068-3.492 0-6.274-2.358-6.274-7.104 0-4.629 2.693-7.075 6.274-7.075 1.599 0 3.078.612 4.232 2.01V6.026h4.558v13.044c0 5.706-4.647 6.929-8.198 6.929-2.456 0-4.498-.611-6.333-2.096M51.074 20.47v-8.255c0-1.705-.909-2.255-2.347-2.255-1.319 0-2.199.723-2.727 1.358v9.153h-4.516V1.059H46V8.08c.851-.982 2.522-2.052 4.898-2.052 3.226 0 4.693 1.793 4.693 4.365v10.077h-4.517zM60.1 16.485V9.948h-2.357V6.105h2.356V2.47h4.537v3.634h2.886v3.843h-2.886v5.295c0 .808.47 1.415 1.237 1.415.5 0 1.001-.173 1.149-.346l.882 3.352c-.559.52-1.678.924-3.357.924-2.886 0-4.448-1.416-4.448-4.103M71.232 21.815c.323.174.764.26 1.117.26 1.029 0 1.675-.202 1.94-.78l.324-.749-5.752-14.31h4.763l3.31 9 3.274-9H85l-6.478 16.099c-1.146 2.944-3.263 3.608-5.997 3.665-.411 0-1.47-.087-1.94-.231l.647-3.954z" transform="translate(28.000000, 14.000000) translate(0.000000, 10.000000)"/>
                </g>
            </g>
        </g>
    </g>
</svg>
