<svg xmlns="http://www.w3.org/2000/svg" xmlns:xlink="http://www.w3.org/1999/xlink" width="17" height="17" viewBox="0 0 17 17">
    <defs>
        <filter id="5gkig4sfha">
            <feColorMatrix in="SourceGraphic" values="0 0 0 0 0.043137 0 0 0 0 0.447059 0 0 0 0 0.811765 0 0 0 1.000000 0"/>
        </filter>
        <path id="uf8uqgxoub" d="M8.5 1.417c-3.91 0-7.083 3.173-7.083 7.083S4.59 15.583 8.5 15.583s7.083-3.173 7.083-7.083S12.41 1.417 8.5 1.417zm2.557 4.49c.758 0 1.367.61 1.367 1.368 0 .758-.609 1.367-1.367 1.367S9.69 8.032 9.69 7.275c-.007-.758.61-1.368 1.367-1.368zm-4.25-1.119c.92 0 1.672.751 1.672 1.672 0 .92-.751 1.672-1.672 1.672-.92 0-1.672-.751-1.672-1.672 0-.928.744-1.672 1.672-1.672zm0 6.467v2.657c-1.7-.532-3.046-1.842-3.64-3.514.743-.793 2.599-1.197 3.64-1.197.375 0 .85.057 1.346.156-1.162.616-1.346 1.43-1.346 1.898zM8.5 14.167c-.191 0-.375-.007-.56-.029v-2.883c0-1.005 2.083-1.508 3.117-1.508.758 0 2.068.276 2.72.814-.829 2.104-2.876 3.606-5.277 3.606z"/>
    </defs>
    <g fill="none" fill-rule="evenodd">
        <g>
            <g>
                <g filter="url(#5gkig4sfha)" transform="translate(-303.000000, -300.000000) translate(303.000000, 212.000000) translate(0.000000, 79.000000)">
                    <g transform="translate(0.000000, 9.000000)">
                        <mask id="7fxilm895c" fill="#fff">
                            <use xlink:href="#uf8uqgxoub"/>
                        </mask>
                        <g fill="#000" fill-rule="nonzero" mask="url(#7fxilm895c)">
                            <path d="M0 0H17V17H0z"/>
                        </g>
                    </g>
                </g>
            </g>
        </g>
    </g>
</svg>
