<svg xmlns="http://www.w3.org/2000/svg" width="62" height="70" viewBox="0 0 62 70">
    <g fill="none" fill-rule="evenodd">
        <g fill-rule="nonzero">
            <g>
                <g>
                    <g>
                        <g fill="#4398D1">
                            <path d="M37.237 41.911L7.51 41.911 3.264 4.835 41.483 4.835zM.079.051H44.669000000000004V4.835H.079z" transform="translate(-1306 -429) translate(300 346.667) translate(883.42) translate(123.152 82.333) translate(.008 25.667)"/>
                        </g>
                        <path fill="#398CC4" d="M4.269 30.333L4.849 35 44.167 35 44.747 30.333z" transform="translate(-1306 -429) translate(300 346.667) translate(883.42) translate(123.152 82.333)"/>
                        <path fill="#726891" d="M21.313 25.667L6.4 25.667 6.4 13.667 10.66 7 17.052 7 21.313 13.667z" transform="translate(-1306 -429) translate(300 346.667) translate(883.42) translate(123.152 82.333)"/>
                        <path fill="#E8594A" d="M10.66 0H17.051000000000002V9.333H10.66z" transform="translate(-1306 -429) translate(300 346.667) translate(883.42) translate(123.152 82.333)"/>
                        <path fill="#7A709C" d="M6.4 14H21.313000000000002V25.667H6.4z" transform="translate(-1306 -429) translate(300 346.667) translate(883.42) translate(123.152 82.333)"/>
                        <path fill="#E66712" d="M38.774 4.171L41.02 4.087 40.636 14.926 38.391 15.01z" transform="translate(-1306 -429) translate(300 346.667) translate(883.42) translate(123.152 82.333) rotate(-26.527 39.705 9.549)"/>
                        <g fill="#F77219">
                            <path d="M14.893 0H19.124000000000002V4.642H14.893zM9.604 9.284H.083C.083 4.157 3.872 0 8.546 0h6.347v4.642l-5.29 4.642z" transform="translate(-1306 -429) translate(300 346.667) translate(883.42) translate(123.152 82.333) translate(25.573)"/>
                        </g>
                        <path fill="#D4D4D4" d="M29.834 11.667H36.225V16.334H29.834z" transform="translate(-1306 -429) translate(300 346.667) translate(883.42) translate(123.152 82.333)"/>
                        <path fill="#EBEBEB" d="M28.769 14L35.16 14 40.486 20.482 40.486 25.667 25.573 25.667 25.573 17.889z" transform="translate(-1306 -429) translate(300 346.667) translate(883.42) translate(123.152 82.333)"/>
                        <path fill="#F5A338" d="M54.334 51.333h-1.668c-1.004 0-1.995.257-2.894.748-1.822.999-3.967.999-5.789 0-.899-.491-1.89-.748-2.894-.748h-1.668c-2.941 0-5.326 2.612-5.326 5.834v7c0 3.22 2.385 5.833 5.326 5.833h1.668c1.005 0 1.995-.257 2.894-.748 1.822-.998 3.967-.998 5.789 0 .899.491 1.89.748 2.894.748h1.668c2.941 0 5.326-2.612 5.326-5.833v-7c0-3.222-2.385-5.834-5.326-5.834z" transform="translate(-1306 -429) translate(300 346.667) translate(883.42) translate(123.152 82.333)"/>
                        <path fill="#F9B44D" d="M54.334 63h-1.668c-1.004 0-1.995-.308-2.894-.897-1.822-1.199-3.967-1.199-5.789 0-.899.589-1.89.897-2.894.897h-1.668c-2.941 0-5.326-3.135-5.326-7s2.385-7 5.326-7h1.668c1.005 0 1.995.308 2.894.897 1.822 1.199 3.967 1.199 5.789 0 .899-.589 1.89-.897 2.894-.897h1.668c2.941 0 5.326 3.135 5.326 7 0 3.866-2.385 7-5.326 7z" transform="translate(-1306 -429) translate(300 346.667) translate(883.42) translate(123.152 82.333)"/>
                        <g fill="#F5A338">
                            <path d="M14.824.041H16.928V3.092H14.824zM4.303.041H6.407V3.092H4.303zM.094 1.568H2.198V4.619H.094zM10.616 1.568H12.719999999999999V4.619H10.616z" transform="translate(-1306 -429) translate(300 346.667) translate(883.42) translate(123.152 82.333) translate(38.356 53.667)"/>
                        </g>
                        <path fill="#97D3E6" d="M30.392 35v-9.333H12.791V52.5c0 1.933 1.477 3.5 3.3 3.5h11.001c1.823 0 3.3-1.567 3.3-3.5V40.833l4.467 2.369c1.178.625 2.61.119 3.2-1.13l.001-.002.028-.058c.616-1.283.134-2.852-1.074-3.504l-.015-.008-6.607-3.5z" transform="translate(-1306 -429) translate(300 346.667) translate(883.42) translate(123.152 82.333)"/>
                        <path fill="#8AC9DE" d="M36.996 38.5L30.378 35v-9.333h-.835C25.542 39.59 18.522 48.1 12.79 53.014 13.028 54.728 14.415 56 16.05 56h11.02c1.827 0 3.307-1.567 3.307-3.5V40.833l4.475 2.369c1.18.625 2.615.119 3.206-1.13v-.002l.028-.058c.617-1.283.135-2.852-1.075-3.504l-.016-.008z" transform="translate(-1306 -429) translate(300 346.667) translate(883.42) translate(123.152 82.333)"/>
                        <g fill="#7DBDD1">
                            <path d="M.059.098H2.595V13.985000000000001H.059zM5.13.098H7.666V13.985000000000001H5.13zM10.202.098H12.738V13.985000000000001H10.202z" transform="translate(-1306 -429) translate(300 346.667) translate(883.42) translate(123.152 82.333) translate(12.79 44.333)"/>
                        </g>
                    </g>
                </g>
            </g>
        </g>
    </g>
</svg>
