<svg xmlns="http://www.w3.org/2000/svg" width="24" height="24" viewBox="0 0 24 24">
    <defs>
        <filter id="x6enql514a">
            <feColorMatrix in="SourceGraphic" values="0 0 0 0 0.043137 0 0 0 0 0.447059 0 0 0 0 0.811765 0 0 0 1.000000 0"/>
        </filter>
    </defs>
    <g fill="none" fill-rule="evenodd">
        <g>
            <g>
                <g filter="url(#x6enql514a)" transform="translate(-28.000000, -459.000000) translate(0.000000, 64.000000) translate(0.000000, 383.000000)">
                    <g>
                        <path d="M0 0L24 0 24 24 0 24z" transform="translate(28.000000, 12.000000)"/>
                        <path fill="#000" fill-rule="nonzero" d="M12 4c-4.41 0-8 3.59-8 8s3.59 8 8 8 8-3.59 8-8-3.59-8-8-8zm1 14h-2v-2h2v2zm0-3h-2c0-3.25 3-3 3-5 0-1.1-.9-2-2-2s-2 .9-2 2H8c0-2.21 1.79-4 4-4s4 1.79 4 4c0 2.5-3 2.75-3 5z" opacity=".3" transform="translate(28.000000, 12.000000)"/>
                        <path fill="#000" fill-rule="nonzero" d="M11 16h2v2h-2v-2zm1-14C6.48 2 2 6.48 2 12s4.48 10 10 10 10-4.48 10-10S17.52 2 12 2zm0 18c-4.41 0-8-3.59-8-8s3.59-8 8-8 8 3.59 8 8-3.59 8-8 8zm0-14c-2.21 0-4 1.79-4 4h2c0-1.1.9-2 2-2s2 .9 2 2c0 2-3 1.75-3 5h2c0-2.25 3-2.5 3-5 0-2.21-1.79-4-4-4z" transform="translate(28.000000, 12.000000)"/>
                    </g>
                </g>
            </g>
        </g>
    </g>
</svg>
