<svg xmlns="http://www.w3.org/2000/svg" width="67" height="68" viewBox="0 0 67 68">
    <g fill="none" fill-rule="evenodd">
        <g fill-rule="nonzero">
            <g>
                <g>
                    <g>
                        <g>
                            <path fill="#FED843" d="M39.412 28.246l5.8-14.63c-3.624-3.806-8.806-6.147-13.86-6.26C22.408 7.15 14.49 13.142 12.1 21.92l4.985 17.106s16.818-7.145 22.327-10.78z" transform="translate(-1079 -433) translate(300 346.667) translate(662.076) translate(117.288 85.333) translate(0 1.129)"/>
                            <path fill="#FABE2C" d="M39.412 28.246l5.8-14.63c-3.624-3.806-8.806-6.147-13.86-6.26-.48-.012-.958-.003-1.432.02v26.986c3.169-2.031 6.351-4.043 9.492-6.116z" transform="translate(-1079 -433) translate(300 346.667) translate(662.076) translate(117.288 85.333) translate(0 1.129)"/>
                            <path fill="#59C36A" d="M31.794 14.086h-3.862V6.113c0-1.2-.958-2.177-2.136-2.177h-4.429V0h4.43c3.306 0 5.997 2.742 5.997 6.113v7.973z" transform="translate(-1079 -433) translate(300 346.667) translate(662.076) translate(117.288 85.333) translate(0 1.129)"/>
                            <path fill="#3BA455" d="M29.92 1.68v12.406h1.874V6.113c0-1.743-.721-3.317-1.874-4.432z" transform="translate(-1079 -433) translate(300 346.667) translate(662.076) translate(117.288 85.333) translate(0 1.129)"/>
                            <path fill="#59C36A" d="M54.965 1.392L53.6 0 20.284 33.957l-.097 32.957c2.616.556 5.244.828 7.852.828 10.007 0 19.687-4.01 26.926-11.39 7.202-7.34 11.168-17.1 11.168-27.48 0-10.38-3.966-20.14-11.168-27.48z" transform="translate(-1079 -433) translate(300 346.667) translate(662.076) translate(117.288 85.333) translate(0 1.129)"/>
                            <path fill="#97DE3D" d="M20.284 33.957l-.097 32.957c2.616.556 5.244.828 7.852.828 10.007 0 19.687-4.01 26.926-11.39 1.217-1.24 2.34-2.55 3.368-3.92l-28.53-28.177-9.519 9.702z" transform="translate(-1079 -433) translate(300 346.667) translate(662.076) translate(117.288 85.333) translate(0 1.129)"/>
                            <path fill="#DA166A" d="M50.738 52.326c6.329-6.452 9.815-15.029 9.815-24.152 0-9.124-3.486-17.7-9.815-24.152l-.54-.555-29.914 30.49.87 27.843c1.973.358 3.952.535 5.918.535 8.795 0 17.303-3.524 23.666-10.01z" transform="translate(-1079 -433) translate(300 346.667) translate(662.076) translate(117.288 85.333) translate(0 1.129)"/>
                            <g fill="#FC3E81">
                                <path d="M9.553.042L.033 9.745l.87 27.842c1.974.359 3.953.536 5.919.536 8.795 0 17.303-3.525 23.665-10.01 1.245-1.269 2.377-2.62 3.397-4.041L9.553.042z" transform="translate(-1079 -433) translate(300 346.667) translate(662.076) translate(117.288 85.333) translate(0 1.129) translate(20.25 24.212)"/>
                                <path d="M20.536 12.857c1.01 0 1.977-.905 1.93-1.968-.046-1.066-.848-1.968-1.93-1.968-1.01 0-1.978.905-1.931 1.968.047 1.066.848 1.968 1.93 1.968zM19.17 5.56c1.01 0 1.978-.905 1.931-1.968-.047-1.066-.848-1.968-1.93-1.968-1.01 0-1.978.905-1.931 1.968.047 1.066.848 1.968 1.93 1.968z" transform="translate(-1079 -433) translate(300 346.667) translate(662.076) translate(117.288 85.333) translate(0 1.129) translate(20.25 24.212)"/>
                            </g>
                            <path fill="#FD7EB8" d="M33.382 35.928c1.01 0 1.977-.905 1.93-1.968-.046-1.066-.848-1.968-1.93-1.968-1.01 0-1.978.905-1.93 1.968.046 1.066.847 1.968 1.93 1.968zM39.406 33.739c-.351.357-.574.84-.55 1.362.046 1.067.848 1.969 1.93 1.969.514 0 1.016-.236 1.38-.606l-2.76-2.725z" transform="translate(-1079 -433) translate(300 346.667) translate(662.076) translate(117.288 85.333) translate(0 1.129)"/>
                            <path fill="#FABE2C" d="M16.98 67.742C7.657 67.742.07 60.01.07 50.506c0-9.504 7.586-17.237 16.91-17.237 9.326 0 16.912 7.733 16.912 17.237 0 9.504-7.586 17.236-16.911 17.236z" transform="translate(-1079 -433) translate(300 346.667) translate(662.076) translate(117.288 85.333) translate(0 1.129)"/>
                            <path fill="#FD9127" d="M16.98 67.742V33.269c9.326 0 16.912 7.733 16.912 17.237 0 9.504-7.586 17.236-16.911 17.236zM13.47 43.536c1.01 0 1.978-.905 1.931-1.968-.047-1.066-.848-1.968-1.93-1.968-1.01 0-1.978.906-1.932 1.968.047 1.067.849 1.968 1.931 1.968z" transform="translate(-1079 -433) translate(300 346.667) translate(662.076) translate(117.288 85.333) translate(0 1.129)"/>
                            <path fill="#FD9127" d="M16.98 48.31c1.01 0 1.978-.906 1.932-1.969-.047-1.066-.849-1.968-1.931-1.968-1.01 0-1.978.906-1.93 1.968.046 1.067.847 1.968 1.93 1.968z" transform="translate(-1079 -433) translate(300 346.667) translate(662.076) translate(117.288 85.333) translate(0 1.129)"/>
                            <path fill="#FABE2C" d="M16.98 48.31c1.01 0 1.978-.906 1.932-1.969-.047-1.066-.849-1.968-1.931-1.968v3.936z" transform="translate(-1079 -433) translate(300 346.667) translate(662.076) translate(117.288 85.333) translate(0 1.129)"/>
                            <path fill="#97DE3D" d="M16.97 33.364l-1.316.31c-.066.015-1.651.382-3.667.359-2.817-.032-5.18-.81-6.834-2.253-1.655-1.442-2.777-3.7-3.245-6.53-.335-2.027-.226-3.68-.221-3.75l.095-1.371 1.315-.31c.066-.015 1.651-.381 3.667-.359 2.817.032 5.18.811 6.834 2.253 1.655 1.442 2.777 3.7 3.245 6.531.335 2.027.226 3.68.221 3.749l-.095 1.371z" transform="translate(-1079 -433) translate(300 346.667) translate(662.076) translate(117.288 85.333) translate(0 1.129)"/>
                            <path fill="#FABE2C" d="M20.582 43.536c1.01 0 1.977-.905 1.93-1.968-.046-1.066-.848-1.968-1.93-1.968-1.01 0-1.978.906-1.931 1.968.047 1.067.848 1.968 1.93 1.968z" transform="translate(-1079 -433) translate(300 346.667) translate(662.076) translate(117.288 85.333) translate(0 1.129)"/>
                        </g>
                    </g>
                </g>
            </g>
        </g>
    </g>
</svg>
