<svg xmlns="http://www.w3.org/2000/svg" xmlns:xlink="http://www.w3.org/1999/xlink" width="20" height="20" viewBox="0 0 20 20">
    <defs>
        <filter id="tjhmhkncza">
            <feColorMatrix in="SourceGraphic" values="0 0 0 0 0.027451 0 0 0 0 0.474510 0 0 0 0 0.894118 0 0 0 1.000000 0"/>
        </filter>
        <filter id="qrdefi9o6b">
            <feColorMatrix in="SourceGraphic" values="0 0 0 0 0.043137 0 0 0 0 0.447059 0 0 0 0 0.811765 0 0 0 1.000000 0"/>
        </filter>
        <path id="5cjyiqbrmc" d="M10 1.667c-3.225 0-5.833 2.608-5.833 5.833C4.167 11.875 10 18.333 10 18.333s5.833-6.458 5.833-10.833c0-3.225-2.608-5.833-5.833-5.833zm0 7.916c-1.15 0-2.083-.933-2.083-2.083 0-1.15.933-2.083 2.083-2.083 1.15 0 2.083.933 2.083 2.083 0 1.15-.933 2.083-2.083 2.083z"/>
    </defs>
    <g fill="none" fill-rule="evenodd">
        <g>
            <g>
                <g filter="url(#tjhmhkncza)" transform="translate(-765 -401) translate(428 32) translate(33 361)">
                    <g>
                        <g filter="url(#qrdefi9o6b)" transform="translate(259) translate(41)">
                            <g>
                                <g transform="translate(4 6) translate(0 2)">
                                    <mask id="59mjqa41rd" fill="#fff">
                                        <use xlink:href="#5cjyiqbrmc"/>
                                    </mask>
                                    <g fill="#000" fill-rule="nonzero" mask="url(#59mjqa41rd)">
                                        <path d="M0 0H20V20H0z"/>
                                    </g>
                                </g>
                            </g>
                        </g>
                    </g>
                </g>
            </g>
        </g>
    </g>
</svg>
