<svg xmlns="http://www.w3.org/2000/svg" width="24" height="24" viewBox="0 0 24 24">
    <defs>
        <filter id="vu6sp235aa">
            <feColorMatrix in="SourceGraphic" values="0 0 0 0 0.043137 0 0 0 0 0.447059 0 0 0 0 0.811765 0 0 0 1.000000 0"/>
        </filter>
    </defs>
    <g fill="none" fill-rule="evenodd">
        <g>
            <g>
                <g filter="url(#vu6sp235aa)" transform="translate(-28 -514) translate(0 64) translate(0 438)">
                    <g>
                        <path d="M0 0H24V24H0z" transform="translate(28 12)"/>
                        <path fill="#000" fill-rule="nonzero" d="M5 19V5h6v14H5zm14 0h-6v-7h6v7zm0-9h-6V5h6v5z" opacity=".3" transform="translate(28 12)"/>
                        <path fill="#000" fill-rule="nonzero" d="M19 3H5c-1.1 0-2 .9-2 2v14c0 1.1.9 2 2 2h14c1.1 0 2-.9 2-2V5c0-1.1-.9-2-2-2zM5 19V5h6v14H5zm14 0h-6v-7h6v7zm0-9h-6V5h6v5z" transform="translate(28 12)"/>
                    </g>
                </g>
            </g>
        </g>
    </g>
</svg>
