<svg xmlns="http://www.w3.org/2000/svg" xmlns:xlink="http://www.w3.org/1999/xlink" width="17" height="17" viewBox="0 0 17 17">
    <defs>
        <filter id="uhob4vucqa">
            <feColorMatrix in="SourceGraphic" values="0 0 0 0 0.043137 0 0 0 0 0.447059 0 0 0 0 0.811765 0 0 0 1.000000 0"/>
        </filter>
        <filter id="mp3qkn9t0b">
            <feColorMatrix in="SourceGraphic" values="0 0 0 0 0.043137 0 0 0 0 0.447059 0 0 0 0 0.811765 0 0 0 1.000000 0"/>
        </filter>
        <path id="gpal52d23c" d="M14.875 12.75v.708c0 .78-.637 1.417-1.417 1.417H3.542c-.787 0-1.417-.637-1.417-1.417V3.542c0-.78.63-1.417 1.417-1.417h9.916c.78 0 1.417.638 1.417 1.417v.708H8.5c-.786 0-1.417.638-1.417 1.417v5.666c0 .78.63 1.417 1.417 1.417h6.375zM8.5 11.333h7.083V5.667H8.5v5.666zm2.833-1.77c-.588 0-1.062-.475-1.062-1.063s.474-1.063 1.062-1.063c.588 0 1.063.475 1.063 1.063s-.475 1.063-1.063 1.063z"/>
    </defs>
    <g fill="none" fill-rule="evenodd">
        <g>
            <g>
                <g>
                    <g filter="url(#uhob4vucqa)" transform="translate(-574 -300) translate(301 212) translate(0 79) translate(273)">
                        <g filter="url(#mp3qkn9t0b)" transform="translate(0 9)">
                            <mask id="uoaddo934d" fill="#fff">
                                <use xlink:href="#gpal52d23c"/>
                            </mask>
                            <g fill="#000" fill-rule="nonzero" mask="url(#uoaddo934d)">
                                <path d="M0 0H17V17H0z"/>
                            </g>
                        </g>
                    </g>
                </g>
            </g>
        </g>
    </g>
</svg>
