<svg xmlns="http://www.w3.org/2000/svg" xmlns:xlink="http://www.w3.org/1999/xlink" width="49" height="49" viewBox="0 0 49 49">
    <defs>
        <filter id="87j4ej6ooa">
            <feColorMatrix in="SourceGraphic" values="0 0 0 0 0.043137 0 0 0 0 0.447059 0 0 0 0 0.811765 0 0 0 1.000000 0"/>
        </filter>
        <path id="ujznyqrhpb" d="M20 15.5c-1.25 0-2.45-.2-3.57-.57-.35-.11-.74-.03-1.02.24l-2.2 2.2c-2.83-1.44-5.15-3.75-6.59-6.59l2.2-2.21c.28-.26.36-.65.25-1C8.7 6.45 8.5 5.25 8.5 4c0-.55-.45-1-1-1H4c-.55 0-1 .45-1 1 0 9.39 7.61 17 17 17 .55 0 1-.45 1-1v-3.5c0-.55-.45-1-1-1zM19 12h2c0-4.97-4.03-9-9-9v2c3.87 0 7 3.13 7 7zm-4 0h2c0-2.76-2.24-5-5-5v2c1.66 0 3 1.34 3 3z"/>
    </defs>
    <g fill="none" fill-rule="evenodd">
        <g>
            <g>
                <g transform="translate(-965 -336) translate(301 217) translate(664 119)">
                    <rect width="49" height="49" fill="#0B72CF" fill-opacity=".2" rx="24.5"/>
                    <g filter="url(#87j4ej6ooa)">
                        <g transform="translate(11 14)">
                            <mask id="wcjd1ih47c" fill="#fff">
                                <use xlink:href="#ujznyqrhpb"/>
                            </mask>
                            <g fill="#000" fill-rule="nonzero" mask="url(#wcjd1ih47c)">
                                <path d="M0 0H24V24H0z"/>
                            </g>
                        </g>
                    </g>
                </g>
            </g>
        </g>
    </g>
</svg>
