<svg xmlns="http://www.w3.org/2000/svg" width="24" height="24" viewBox="0 0 24 24">
    <defs>
        <filter id="wn7zvk52wa">
            <feColorMatrix in="SourceGraphic" values="0 0 0 0 0.043137 0 0 0 0 0.447059 0 0 0 0 0.811765 0 0 0 1.000000 0"/>
        </filter>
    </defs>
    <g fill="none" fill-rule="evenodd">
        <g>
            <g>
                <g filter="url(#wn7zvk52wa)" transform="translate(-28 -368) translate(0 64) translate(0 292)">
                    <g>
                        <path d="M0 0H24V24H0z" transform="translate(28 12)"/>
                        <g fill="#000" fill-rule="nonzero">
                            <path d="M2 5L18 5 18 1.98 2 2zM3 18h14V7H3v11zm4-8h6v2H7v-2z" opacity=".3" transform="translate(28 12) translate(2 2)"/>
                            <path d="M18 0H2C1 0 0 .9 0 2v3.01c0 .72.43 1.34 1 1.69V18c0 1.1 1.1 2 2 2h14c.9 0 2-.9 2-2V6.7c.57-.35 1-.97 1-1.69V2c0-1.1-1-2-2-2zm-1 18H3V7h14v11zm1-13H2V2l16-.02V5z" transform="translate(28 12) translate(2 2)"/>
                            <path d="M7 10H13V12H7z" transform="translate(28 12) translate(2 2)"/>
                        </g>
                    </g>
                </g>
            </g>
        </g>
    </g>
</svg>
