<svg xmlns="http://www.w3.org/2000/svg" width="24" height="24" viewBox="0 0 24 24">
    <defs>
        <filter id="bdj1aeic5a">
            <feColorMatrix in="SourceGraphic" values="0 0 0 0 0.043137 0 0 0 0 0.447059 0 0 0 0 0.811765 0 0 0 1.000000 0"/>
        </filter>
    </defs>
    <g fill="none" fill-rule="evenodd">
        <g>
            <g>
                <g filter="url(#bdj1aeic5a)" transform="translate(-28 -272) translate(0 64) translate(0 196)">
                    <g>
                        <path d="M0 0H24V24H0z" transform="translate(28 12)"/>
                        <g fill="#000" fill-rule="nonzero">
                            <path d="M18 10.5L19.5 12 12.51 19 8 14.5 9.5 13 12.51 16z" transform="translate(28 12) translate(3 1)"/>
                            <path d="M14 4L14 7 4 7 4 4 2 4 2 18 8.68 18 5.17 14.5 9.5 10.17 12.51 13.17 16 9.67 16 4z" opacity=".3" transform="translate(28 12) translate(3 1)"/>
                            <path d="M2 18V4h2v3h10V4h2v5.67l2-2V4c0-1.1-.9-2-2-2h-4.18C11.4.84 10.3 0 9 0 7.7 0 6.6.84 6.18 2H2C.9 2 0 2.9 0 4v14c0 1.1.9 2 2 2h8.68l-2-2H2zM9 2c.55 0 1 .45 1 1s-.45 1-1 1-1-.45-1-1 .45-1 1-1z" transform="translate(28 12) translate(3 1)"/>
                        </g>
                    </g>
                </g>
            </g>
        </g>
    </g>
</svg>
