<svg xmlns="http://www.w3.org/2000/svg" width="24" height="24" viewBox="0 0 24 24">
    <defs>
        <filter id="v3kpj3u9sa">
            <feColorMatrix in="SourceGraphic" values="0 0 0 0 0.043137 0 0 0 0 0.447059 0 0 0 0 0.811765 0 0 0 1.000000 0"/>
        </filter>
    </defs>
    <g fill="none" fill-rule="evenodd">
        <g>
            <g>
                <g filter="url(#v3kpj3u9sa)" transform="translate(-28 -563) translate(0 64) translate(0 487)">
                    <g>
                        <path d="M0 0L24 0 24 24 0 24z" transform="translate(28 12)"/>
                        <path fill="#000" fill-rule="nonzero" d="M5 5v14h14V5H5zm9 12H7v-2h7v2zm3-4H7v-2h10v2zm0-4H7V7h10v2z" opacity=".3" transform="translate(28 12)"/>
                        <path fill="#000" fill-rule="nonzero" d="M7 15h7v2H7v-2zm0-4h10v2H7v-2zm0-4h10v2H7V7zm12-4h-4.18C14.4 1.84 13.3 1 12 1c-1.3 0-2.4.84-2.82 2H5c-.14 0-.27.01-.4.04-.39.08-.74.28-1.01.55-.18.18-.33.4-.43.64-.1.24-.16.49-.16.77v14c0 .27.06.54.16.78s.25.45.43.64c.27.27.62.47 1.01.55.13.02.26.03.4.03h14c1.1 0 2-.9 2-2V5c0-1.1-.9-2-2-2zm-7-.25c.41 0 .75.34.75.75s-.34.75-.75.75-.75-.34-.75-.75.34-.75.75-.75zM19 19H5V5h14v14z" transform="translate(28 12)"/>
                    </g>
                </g>
            </g>
        </g>
    </g>
</svg>
