<svg xmlns="http://www.w3.org/2000/svg" width="24" height="24" viewBox="0 0 24 24">
    <defs>
        <filter id="oama143iaa">
            <feColorMatrix in="SourceGraphic" values="0 0 0 0 0.043137 0 0 0 0 0.447059 0 0 0 0 0.811765 0 0 0 1.000000 0"/>
        </filter>
    </defs>
    <g fill="none" fill-rule="evenodd">
        <g>
            <g>
                <g filter="url(#oama143iaa)" transform="translate(-28 -224) translate(0 64) translate(0 148)">
                    <g>
                        <path d="M0 0H24V24H0z" transform="translate(28 12)"/>
                        <g fill="#000" fill-rule="nonzero">
                            <path d="M4.44 6.86L5.02 2H3.05L2.04 6.36c-.1.42-.01.84.25 1.17.14.18.44.47.94.47.61 0 1.13-.49 1.21-1.14zM7.71 8C8.45 8 9 7.41 9 6.69V2H7.04l-.55 4.52c-.05.39.07.78.33 1.07.23.26.55.41.89.41zM12.22 8c.41 0 .72-.15.96-.41.25-.29.37-.68.33-1.07L12.96 2H11v4.69c0 .72.55 1.31 1.22 1.31zM16.91 1.99L14.98 2l.58 4.86c.08.65.6 1.14 1.21 1.14.49 0 .8-.29.93-.47.26-.33.35-.76.25-1.17l-1.04-4.37z" opacity=".3" transform="translate(28 12) translate(2 3)"/>
                            <path d="M19.9 5.89l-1.05-4.37c-.22-.9-1-1.52-1.91-1.52H3.05c-.9 0-1.69.63-1.9 1.52L.1 5.89C-.14 6.91.08 7.95.72 8.77c.08.11.19.19.28.29V16c0 1.1.9 2 2 2h14c1.1 0 2-.9 2-2V9.06c.09-.09.2-.18.28-.28.64-.82.87-1.87.62-2.89zM11 2h1.96l.54 4.52c.05.39-.07.78-.33 1.07-.22.26-.54.41-.95.41C11.55 8 11 7.41 11 6.69V2zM6.49 6.52L7.04 2H9v4.69C9 7.41 8.45 8 7.71 8c-.34 0-.65-.15-.89-.41-.25-.29-.37-.68-.33-1.07zm-4.2 1.01c-.26-.33-.35-.76-.25-1.17L3.05 2h1.97l-.58 4.86C4.36 7.51 3.84 8 3.23 8c-.5 0-.8-.29-.94-.47zM17 16H3V9.97c.08.01.15.03.23.03.87 0 1.66-.36 2.24-.95.6.6 1.4.95 2.31.95.87 0 1.65-.36 2.23-.93.59.57 1.39.93 2.29.93.84 0 1.64-.35 2.24-.95.58.59 1.37.95 2.24.95.08 0 .15-.02.23-.03V16H17zm.71-8.47c-.14.18-.44.47-.94.47-.61 0-1.14-.49-1.21-1.14L14.98 2l1.93-.01 1.05 4.37c.1.42.01.85-.25 1.17z" transform="translate(28 12) translate(2 3)"/>
                        </g>
                    </g>
                </g>
            </g>
        </g>
    </g>
</svg>
