<svg xmlns="http://www.w3.org/2000/svg" width="24" height="24" viewBox="0 0 24 24">
    <defs>
        <filter id="rj3jn2cnea">
            <feColorMatrix in="SourceGraphic" values="0 0 0 0 0.043137 0 0 0 0 0.447059 0 0 0 0 0.811765 0 0 0 1.000000 0"/>
        </filter>
    </defs>
    <g fill="none" fill-rule="evenodd">
        <g>
            <g>
                <g filter="url(#rj3jn2cnea)" transform="translate(-28 -509) translate(0 64) translate(0 433)">
                    <g>
                        <path d="M0 0L24 0 24 24 0 24z" transform="translate(28 12)"/>
                        <path fill="#000" fill-rule="nonzero" d="M5 19h14V5H5v14zm2.41-7.41L10 14.17l6.59-6.59L18 9l-8 8-4-4 1.41-1.41z" opacity=".3" transform="translate(28 12)"/>
                        <path fill="#000" fill-rule="nonzero" d="M18 9l-1.41-1.42L10 14.17l-2.59-2.58L6 13l4 4 8-8zm1-6h-4.18C14.4 1.84 13.3 1 12 1c-1.3 0-2.4.84-2.82 2H5c-.14 0-.27.01-.4.04-.39.08-.74.28-1.01.55-.18.18-.33.4-.43.64-.1.24-.16.49-.16.77v14c0 .27.06.54.16.78s.25.45.43.64c.27.27.62.47 1.01.55.13.02.26.03.4.03h14c1.1 0 2-.9 2-2V5c0-1.1-.9-2-2-2zm-7-.25c.41 0 .75.34.75.75s-.34.75-.75.75-.75-.34-.75-.75.34-.75.75-.75zM19 19H5V5h14v14z" transform="translate(28 12)"/>
                    </g>
                </g>
            </g>
        </g>
    </g>
</svg>
