<svg xmlns="http://www.w3.org/2000/svg" width="24" height="24" viewBox="0 0 24 24">
    <defs>
        <filter id="vzdc7o928a">
            <feColorMatrix in="SourceGraphic" values="0 0 0 0 0.043137 0 0 0 0 0.447059 0 0 0 0 0.811765 0 0 0 1.000000 0"/>
        </filter>
    </defs>
    <g fill="none" fill-rule="evenodd">
        <g>
            <g>
                <g filter="url(#vzdc7o928a)" transform="translate(-28 -465) translate(0 64) translate(0 389)">
                    <g>
                        <path d="M0 0L24 0 24 24 0 24z" transform="translate(28 12)"/>
                        <path fill="#000" fill-rule="nonzero" d="M12 4c-4.41 0-8 3.59-8 8s3.59 8 8 8 8-3.59 8-8-3.59-8-8-8zM6.5 9L10 5.5 13.5 9H11v4H9V9H6.5zm7.5 9.5L10.5 15H13v-4h2v4h2.5L14 18.5z" opacity=".3" transform="translate(28 12)"/>
                        <path fill="#000" fill-rule="nonzero" d="M12 2C6.48 2 2 6.48 2 12s4.48 10 10 10 10-4.48 10-10S17.52 2 12 2zm0 18c-4.41 0-8-3.59-8-8s3.59-8 8-8 8 3.59 8 8-3.59 8-8 8zm-1-7V9h2.5L10 5.5 6.5 9H9v4h2zm4-2h-2v4h-2.5l3.5 3.5 3.5-3.5H15v-4z" transform="translate(28 12)"/>
                    </g>
                </g>
            </g>
        </g>
    </g>
</svg>
