<svg xmlns="http://www.w3.org/2000/svg" xmlns:xlink="http://www.w3.org/1999/xlink" width="20" height="20" viewBox="0 0 20 20">
    <defs>
        <path id="9ofhloeaxa" d="M10 6.667c.917 0 1.667-.75 1.667-1.667S10.917 3.333 10 3.333 8.333 4.083 8.333 5 9.083 6.667 10 6.667zm0 1.666c-.917 0-1.667.75-1.667 1.667s.75 1.667 1.667 1.667 1.667-.75 1.667-1.667-.75-1.667-1.667-1.667zm0 5c-.917 0-1.667.75-1.667 1.667s.75 1.667 1.667 1.667 1.667-.75 1.667-1.667-.75-1.667-1.667-1.667z"/>
    </defs>
    <g fill="none" fill-rule="evenodd">
        <g>
            <g>
                <g transform="translate(-1360 -326) translate(302 308) rotate(-180 539 19)">
                    <mask id="re8qlpsu5b" fill="#fff">
                        <use xlink:href="#9ofhloeaxa"/>
                    </mask>
                    <g fill="#BDBDBD" mask="url(#re8qlpsu5b)">
                        <path d="M0 0H20V20H0z"/>
                    </g>
                </g>
            </g>
        </g>
    </g>
</svg>
