<svg xmlns="http://www.w3.org/2000/svg" xmlns:xlink="http://www.w3.org/1999/xlink" width="76" height="75" viewBox="0 0 76 75">
    <defs>
        <circle id="ux4rxp64pa" cx="37.5" cy="37.5" r="37.5"/>
    </defs>
    <g fill="none" fill-rule="evenodd">
        <g>
            <g>
                <g>
                    <g transform="translate(-680 -421) translate(483 395) translate(197 26) translate(.5)">
                        <mask id="q6nbkyzc2b" fill="#fff">
                            <use xlink:href="#ux4rxp64pa"/>
                        </mask>
                        <use fill="#E21B1B" fill-rule="nonzero" xlink:href="#ux4rxp64pa"/>
                        <path fill="#C40606" fill-rule="nonzero" d="M75 41.97L54.042 21 22 54.241 42.746 75C59.7 72.667 73.053 59.055 75 41.97z" mask="url(#q6nbkyzc2b)"/>
                    </g>
                    <g fill="#FFF" fill-rule="nonzero">
                        <path d="M31.016 33.933c-.74 0-1.48-.283-2.046-.847L.927 5.042C-.203 3.91-.203 2.08.927.95 2.057-.18 3.89-.18 5.02.95l28.043 28.044c1.131 1.13 1.131 2.962 0 4.092-.566.564-1.305.847-2.046.847z" transform="translate(-680 -421) translate(483 395) translate(197 26) translate(21.5 20)"/>
                        <path d="M2.972 33.933c-.74 0-1.48-.283-2.046-.847-1.13-1.131-1.13-2.962 0-4.092L28.97.95c1.13-1.13 2.962-1.13 4.091 0 1.13 1.131 1.131 2.962 0 4.092L5.02 33.086c-.565.564-1.306.847-2.047.847z" transform="translate(-680 -421) translate(483 395) translate(197 26) translate(21.5 20)"/>
                    </g>
                </g>
            </g>
        </g>
    </g>
</svg>
